<svg width="15" height="15" viewBox="0 0 15 15" fill="none" xmlns="http://www.w3.org/2000/svg">
<g clip-path="url(#clip0_11_1013)">
<path d="M14.4 1.65002H11.25V0.400024C11.25 0.250024 11.15 0.150024 11 0.150024C10.85 0.150024 10.75 0.250024 10.75 0.400024V1.60002H4.1V0.400024C4.1 0.250024 4 0.150024 3.85 0.150024C3.7 0.150024 3.55 0.250024 3.55 0.400024V1.60002H0.5C0.35 1.60002 0.25 1.70002 0.25 1.85002V14.1C0.25 14.25 0.35 14.35 0.5 14.35H14.4C14.55 14.35 14.65 14.25 14.65 14.1V1.90002C14.65 1.75002 14.55 1.65002 14.4 1.65002ZM0.75 4.10002H14.1V13.9H0.75V4.10002ZM3.8 3.20002C3.95 3.20002 4.05 3.10002 4.05 2.95002V2.15002H10.65V2.95002C10.65 3.10002 10.75 3.20002 10.9 3.20002C11.05 3.20002 11.15 3.10002 11.15 2.95002V2.15002H14.05V3.55002H0.75V2.15002H3.55V2.95002C3.55 3.10002 3.65 3.20002 3.8 3.20002Z" fill="#3D3D3D"/>
<path d="M12.55 8.70001H2.39999V9.55001H12.55V8.70001Z" fill="#3D3D3D"/>
<path d="M12.55 6.5H2.39999V7.35H12.55V6.5Z" fill="#3D3D3D"/>
<path d="M12.55 10.95H2.39999V11.8H12.55V10.95Z" fill="#3D3D3D"/>
</g>
<defs>
<clipPath id="clip0_11_1013">
<rect width="15" height="15" fill="white"/>
</clipPath>
</defs>
</svg>
