<svg width="15" height="15" viewBox="0 0 15 15" fill="none" xmlns="http://www.w3.org/2000/svg">
<g clip-path="url(#clip0_11_1023)">
<path d="M7.50005 0.25C3.55005 0.25 0.300049 3.5 0.300049 7.45C0.300049 11.45 3.55005 14.7 7.55005 14.7C11.55 14.7 14.8 11.45 14.8 7.45C14.75 3.5 11.5 0.25 7.50005 0.25ZM14.2 7.45C14.2 11.15 11.2 14.15 7.50005 14.15C3.80005 14.15 0.800049 11.15 0.800049 7.45C0.800049 3.75 3.80005 0.75 7.50005 0.75C11.2 0.8 14.2 3.8 14.2 7.45Z" fill="#3D3D3D"/>
<path d="M7.8 6.64999V2.29999C7.8 2.14999 7.7 2.04999 7.55 2.04999C7.4 2.04999 7.3 2.14999 7.3 2.29999V6.64999C6.95 6.74999 6.7 7.04999 6.7 7.44999C6.7 7.59999 6.75 7.69999 6.8 7.79999L5.15 9.34999C5.05 9.44999 5 9.49999 5 9.59999C5 9.64999 5 9.74999 5.05 9.79999C5.1 9.84999 5.15 9.89999 5.25 9.89999C5.3 9.89999 5.4 9.84999 5.45 9.84999L7.1 8.29999C7.2 8.34999 7.35 8.39999 7.5 8.39999C7.95 8.39999 8.35 7.99999 8.35 7.54999C8.35 7.09999 8.1 6.79999 7.8 6.64999ZM7.85 7.44999C7.85 7.59999 7.7 7.74999 7.55 7.74999C7.4 7.74999 7.25 7.59999 7.25 7.44999C7.25 7.29999 7.4 7.14999 7.55 7.14999C7.7 7.14999 7.85 7.29999 7.85 7.44999Z" fill="#3D3D3D"/>
</g>
<defs>
<clipPath id="clip0_11_1023">
<rect width="15" height="15" fill="white"/>
</clipPath>
</defs>
</svg>
