<svg width="222.000000" height="39.152420" viewBox="0 0 222 39.1524" fill="none" xmlns="http://www.w3.org/2000/svg" xmlns:xlink="http://www.w3.org/1999/xlink">
	<desc>
			Created with Pixso.
	</desc>
	<defs/>
	<path id="AVIATOR" d="M177.99 30.27Q180.41 31.47 183.74 31.47Q187.44 31.47 190.38 29.98Q190.65 29.84 190.91 29.69Q192.74 28.65 194.09 27.16Q195.04 26.11 195.75 24.84Q196.15 24.13 196.45 23.39Q197.47 20.9 197.47 18Q197.47 15.34 196.35 13.28Q196.27 13.14 196.19 12.99Q195.82 12.36 195.35 11.82Q194.21 10.48 192.49 9.63Q190.08 8.43 186.75 8.43Q183.05 8.43 180.11 9.92Q179.84 10.06 179.58 10.21Q177.77 11.24 176.43 12.7Q175.45 13.76 174.73 15.05Q174.34 15.74 174.05 16.47Q173.02 18.97 173.02 21.9Q173.02 24.54 174.12 26.59Q174.2 26.76 174.3 26.91Q174.65 27.51 175.09 28.03Q176.24 29.4 177.99 30.27ZM77.82 25.96L89.08 25.96L90.27 31.15L94.39 31.15L88.82 8.75L84.7 8.75L70.14 31.15L74.59 31.15L77.82 25.96ZM107.1 31.15L121.34 8.75L117.02 8.75L106.01 25.96L102.01 8.75L97.72 8.75L103.01 31.15L107.1 31.15ZM128.22 8.75L124.06 8.75L119.58 31.15L123.74 31.15L128.22 8.75ZM134.62 25.96L145.88 25.96L147.07 31.15L151.19 31.15L145.62 8.75L141.5 8.75L126.94 31.15L131.39 31.15L134.62 25.96ZM154.17 12.26L161.6 12.26L157.82 31.15L161.98 31.15L165.72 12.26L173.15 12.26L173.89 8.75L154.88 8.75L154.17 12.26ZM220.35 20.1Q221.5 18.14 221.5 15.5Q221.5 13.4 220.55 11.92Q220.04 11.14 219.27 10.52Q217.05 8.75 212.98 8.75L204.28 8.75L199.8 31.15L204 31.15L205.27 24.58L210.84 24.58L214.52 31.15L218.94 31.15L214.94 24.05Q217.54 23.32 219.17 21.65Q219.49 21.32 219.77 20.96Q220.09 20.55 220.35 20.1ZM188.13 26.95Q186.32 27.82 184.09 27.82Q180.88 27.82 179.09 26.22Q179.05 26.18 179 26.14Q178.49 25.66 178.13 25.09Q177.21 23.66 177.21 21.64Q177.21 19.75 177.81 18.07Q178.03 17.45 178.33 16.87Q178.9 15.76 179.71 14.88Q180.51 14.02 181.55 13.37Q181.92 13.14 182.32 12.95Q184.13 12.08 186.36 12.08Q189.57 12.08 191.37 13.67Q191.42 13.71 191.46 13.76Q192.01 14.27 192.39 14.88Q193.27 16.29 193.27 18.25Q193.27 20.09 192.7 21.72Q192.47 22.4 192.13 23.04Q191.57 24.13 190.76 25.01Q189.95 25.88 188.91 26.52Q188.53 26.76 188.13 26.95ZM215.64 19.8Q213.98 21.16 210.94 21.16L205.98 21.16L207.77 12.26L212.54 12.26Q214.84 12.26 216.07 13.18Q216.46 13.47 216.73 13.84Q217.3 14.66 217.3 15.88Q217.3 17.76 216.41 18.99Q216.09 19.44 215.64 19.8ZM86.04 12.84L88.32 22.7L79.87 22.7L86.04 12.84ZM142.84 12.84L145.12 22.7L136.67 22.7L142.84 12.84Z" fill="#FFFFFF" fill-opacity="1.000000" fill-rule="evenodd"/>
	<path id="Vector" d="M6.37 37.05C19.31 35.15 31.08 30 43.05 25.54C41.76 25.42 40.52 25.18 39.22 25.78C35 27.72 30.66 29.41 26.26 30.9C25.39 31.19 24.71 31.21 24.1 30.51C23.59 29.93 23.07 29.91 22.35 30.22C18.45 31.87 14.55 33.49 10.63 35.09C10.39 35.18 10.05 35.61 9.82 35.09C9.64 34.66 9.85 34.35 10.27 34.16C10.79 33.9 11.31 33.62 12.07 33.22C11.35 33.17 10.86 33.17 10.39 33.09C8.9 32.88 7.68 32.07 6.49 31.21C6.08 30.9 5.66 30.61 5.11 30.68C4.89 30.72 4.66 30.76 4.57 30.95C4.46 31.19 4.67 31.33 4.82 31.48C5.99 32.72 7.16 33.96 8.31 35.2C8.47 35.38 8.94 35.56 8.61 35.86C8.34 36.12 7.93 36.21 7.57 35.83C6.81 35.07 6.02 34.34 5.25 33.58C4.53 32.9 3.79 32.25 3.11 31.55C2.77 31.19 2.46 31.08 2.03 31.35C1.73 31.53 1.4 31.69 1.06 31.78C0.74 31.85 0.32 32.47 0.11 31.94C-0.09 31.48 -0.07 30.79 0.56 30.45C1.31 30.04 2.08 29.66 2.86 29.26C3.07 29.16 3.27 29.03 3.47 28.9C3.65 28.8 3.85 28.63 3.7 28.42C3.58 28.22 3.38 28.4 3.24 28.47C2.55 28.81 1.85 29.16 1.15 29.52C0.9 28.99 1.06 28.67 1.49 28.44C1.8 28.26 2.12 28.1 2.43 27.9C4.08 26.8 5.59 26.82 7.16 28.17C8.43 29.28 9.82 30.29 11.31 31.13C12.34 31.71 13.31 31.82 14.44 31.28C17.59 29.79 20.72 28.24 23.79 26.58C23.92 26.51 24.06 26.44 24.19 26.37C24.4 26.22 24.75 26.06 24.57 25.78C24.4 25.51 24.13 25.79 23.95 25.88C22.39 26.62 20.82 27.38 19.26 28.1C19.08 28.19 18.81 28.54 18.59 28.13C18.41 27.81 18.56 27.57 18.88 27.41C19.1 27.3 19.33 27.21 19.49 27.05C19.71 26.85 20.36 26.91 20.03 26.35C19.78 25.94 19.44 25.67 18.85 25.99C17.41 26.76 15.92 27.47 14.44 28.19C14.21 28.31 13.95 28.4 13.65 28.54C13.74 27.2 13.95 26.08 15.41 25.51C16.63 25.04 17.75 24.32 18.9 23.71C19.08 23.62 19.28 23.51 19.42 23.37C19.62 23.17 19.57 22.92 19.48 22.7C19.35 22.38 19.1 22.56 18.95 22.65C17.53 23.76 16.62 23.01 15.77 21.85C15.7 21.76 15.61 21.67 15.52 21.58C14.4 20.43 14.44 20.33 15.86 19.46C17.44 18.51 19.12 18.67 20.82 18.9C27.95 19.89 35.07 20.9 42.21 21.89C42.93 22 43.52 22.12 43.02 23.04C42.84 23.38 43.11 23.42 43.32 23.53C44.6 24.17 45.81 24.35 47.21 23.63C49.49 22.48 51.81 21.37 54.01 20.02C54.51 19.71 54.89 19.61 55.32 20.07C55.52 20.29 55.84 20.49 56.11 20.2C56.36 19.93 56.04 19.71 55.93 19.5C54.91 17.65 54.04 15.7 53.31 13.73C53.07 13.11 52.75 12.9 52.12 12.9C50.12 12.92 48.34 13.67 46.52 14.34C42.96 15.67 39.58 17.36 36.29 19.23C35.48 19.7 34.8 19.73 33.99 19.66C32.89 19.57 31.8 19.43 30.68 19.37C30.09 19.34 30 19.12 30.1 18.58C30.25 17.93 30.48 17.38 31.02 17C32.89 15.65 34.83 14.44 36.99 13.6C38 13.2 38.97 13.11 39.92 13.65C41.42 14.5 42.91 14.41 44.49 13.94C47.01 13.2 49.51 12.41 52.1 11.93C54.1 11.55 54.82 11.93 55.63 13.76C56.31 15.33 57.01 16.85 57.62 18.46C58.34 20.31 58.02 21.23 56.36 22.36C53.75 24.12 50.86 25.33 47.98 26.57C41.36 29.39 34.42 31.3 27.59 33.51C21.85 35.36 16.09 37.12 10.36 38.94C9.66 39.16 9.01 39.39 8.74 38.4C8.69 38.22 8.52 38.13 8.31 38.22C7.26 38.65 6.99 37.81 6.37 37.05ZM19.55 19.43C19.53 19.52 19.53 19.59 19.51 19.68C19.64 19.71 19.78 19.77 19.91 19.79C26.56 21.14 33.23 22.5 39.89 23.85C40.57 23.99 41.2 23.85 41.69 23.31C41.87 23.11 42.17 22.95 42.08 22.66C41.97 22.36 41.62 22.47 41.36 22.43C35.52 21.62 29.66 20.79 23.81 19.98C22.41 19.79 20.97 19.61 19.55 19.43ZM31.83 17.34C32.75 17.54 33.54 17.86 34.17 17.54C35.5 16.85 36.83 16.19 38.36 15.47C35.59 14.39 33.85 15.97 31.83 17.34ZM37.28 14.28C37.71 14.46 38.09 14.59 38.41 14.77C38.81 14.98 39.51 14.93 39.55 15.45C39.56 15.92 38.88 15.94 38.54 16.19C38.52 16.21 38.49 16.23 38.47 16.23C38.23 16.35 38.04 16.51 38.2 16.78C38.34 17.02 38.56 16.89 38.76 16.8C39.55 16.39 40.34 15.99 41.13 15.58C41.65 15.31 41.56 15.09 41.08 14.89C40.36 14.61 39.65 14.3 38.94 14.03C38.41 13.85 37.89 13.87 37.28 14.28Z" fill="#FFFFFF" fill-opacity="1.000000" fill-rule="nonzero"/>
	<path id="Vector" d="M59.33 16.17C59.64 16.23 59.78 16.44 59.92 16.69C62.15 20.31 63.93 24.12 64.85 28.31C64.89 28.51 65 28.72 65 28.92C65 29.39 64.98 29.97 64.47 30.15C63.99 30.33 63.88 29.75 63.66 29.46C63.23 28.89 62.91 28.24 62.44 27.7C60.1 24.91 59.19 21.51 58.21 18.13C58.09 17.72 58.21 17.5 58.43 17.23L58.41 17.23C58.77 17.21 58.93 17.02 58.95 16.69L58.93 16.71C59.15 16.66 59.29 16.58 59.11 16.33L59.1 16.35C59.38 16.46 59.42 16.37 59.33 16.17ZM60.61 23.6C61.54 25.74 62.96 27.57 64.26 29.53C64.56 29.14 64.6 28.81 64.4 28.51C63.32 26.75 62.01 25.15 60.61 23.6Z" fill="#FFFFFF" fill-opacity="1.000000" fill-rule="nonzero"/>
	<path id="Vector" d="M58.2 13.04C57.57 13.26 56.94 13.01 56.38 13.26C56.06 13.4 56 13.08 55.88 12.9C53.59 9.43 52.06 5.63 51.16 1.59C51.13 1.41 51.09 1.23 51.09 1.06C51.11 0.65 51.15 0.16 51.6 0.02C52.05 -0.12 52.15 0.36 52.35 0.65C53.32 2.07 54.28 3.53 55.25 4.95C55.71 5.65 56.11 6.37 56.34 7.18C56.96 9.12 57.57 11.06 58.2 13.04ZM55.27 6.68C55.39 6.6 55.52 6.53 55.63 6.46C54.49 4.46 53.13 2.61 51.78 0.58C51.51 1.19 51.52 1.59 51.79 1.95C52.95 3.53 54.1 5.09 55.27 6.68Z" fill="#FFFFFF" fill-opacity="1.000000" fill-rule="nonzero"/>
	<path id="Vector" d="M38.2 19.97C40.73 18.94 43.29 17.93 45.82 16.89C46.13 16.76 46.29 16.85 46.52 17.07C47.95 18.47 47.95 18.47 46.99 20.27C46.22 21.71 46.22 21.71 44.62 21.39C42.5 20.97 40.36 20.56 38.23 20.16C38.2 20.11 38.2 20.04 38.2 19.97Z" fill="#FFFFFF" fill-opacity="1.000000" fill-rule="nonzero"/>
	<path id="Vector" d="M50.16 14.05C50.23 15.02 50.25 15.79 50.07 16.55C49.8 17.61 50.05 18.46 50.82 19.21C50.99 19.37 51.49 19.59 51.07 19.95C50.7 20.27 50.32 20.22 50.07 19.73C49.98 19.59 49.83 19.46 49.6 19.19C49.29 20.45 48.68 21.31 47.33 21.46C47.82 20.63 48.2 19.8 48.58 18.98C48.83 18.42 48.83 17.99 48.36 17.54C48.09 17.27 47.86 16.94 47.64 16.62C47.55 16.48 47.14 16.32 47.55 16.08C47.82 15.94 48.11 15.65 48.4 16.06C48.63 16.37 48.86 16.67 49.22 17.12C49.53 16.1 49.8 15.18 50.16 14.05Z" fill="#FFFFFF" fill-opacity="1.000000" fill-rule="nonzero"/>
	<path id="Vector" d="M58.45 17.23C57.95 17.16 57.68 16.85 57.5 16.39C57.21 15.65 56.85 14.93 56.52 14.19C56.36 13.82 56.33 13.47 56.9 13.46C57.86 13.44 58.81 13.4 59.74 13.55C60.36 13.64 60.46 13.92 60.21 14.48C59.96 15.06 59.44 15.51 59.33 16.15L59.35 16.14C59.15 16.06 59.15 16.19 59.15 16.33L59.17 16.32C58.95 16.37 58.81 16.44 58.99 16.69L59.01 16.67C58.59 16.66 58.41 16.85 58.45 17.23ZM59.96 14.05C59.08 13.74 58.39 13.85 57.73 13.85C57.48 13.85 57.15 13.73 56.99 14.01C56.83 14.3 57.12 14.55 57.21 14.84C57.3 15.15 57.5 15.16 57.77 15.04C58.43 14.71 59.1 14.43 59.96 14.05Z" fill="#FFFFFF" fill-opacity="1.000000" fill-rule="nonzero"/>
</svg>
