<svg width="94" height="14" viewBox="0 0 94 14" fill="none" xmlns="http://www.w3.org/2000/svg">
<g clip-path="url(#clip0_13_131)">
<path fill-rule="evenodd" clip-rule="evenodd" d="M6.57101 11.943L3.95501 13.185C3.79273 13.2619 3.61274 13.2937 3.43393 13.277C3.25513 13.2603 3.08411 13.1958 2.93884 13.0902C2.79357 12.9847 2.67941 12.8419 2.60836 12.677C2.5373 12.5121 2.51196 12.3311 2.53501 12.153L2.90701 9.28096C2.92615 9.13381 2.9123 8.98424 2.86647 8.8431C2.82063 8.70196 2.74396 8.57279 2.64201 8.46496L0.652013 6.35996C0.528558 6.22938 0.442571 6.06795 0.403093 5.89265C0.363615 5.71734 0.372105 5.53463 0.42767 5.36374C0.483235 5.19285 0.583823 5.04009 0.718854 4.92152C0.853885 4.80295 1.01837 4.72296 1.19501 4.68996L4.04201 4.15696C4.18783 4.12969 4.32576 4.07032 4.44579 3.98315C4.56582 3.89597 4.66496 3.78319 4.73601 3.65296L6.12201 1.10996C6.20802 0.952197 6.33495 0.820521 6.48945 0.72878C6.64396 0.637039 6.82032 0.588623 7.00001 0.588623C7.1797 0.588623 7.35607 0.637039 7.51057 0.72878C7.66507 0.820521 7.792 0.952197 7.87801 1.10996L9.26401 3.65296C9.33506 3.78319 9.4342 3.89597 9.55423 3.98315C9.67427 4.07032 9.81219 4.12969 9.95801 4.15696L12.805 4.68996C12.9817 4.72296 13.1461 4.80295 13.2812 4.92152C13.4162 5.04009 13.5168 5.19285 13.5724 5.36374C13.6279 5.53463 13.6364 5.71734 13.5969 5.89265C13.5575 6.06795 13.4715 6.22938 13.348 6.35996L11.358 8.46396C11.2561 8.57179 11.1794 8.70096 11.1336 8.8421C11.0877 8.98324 11.0739 9.13281 11.093 9.27996L11.466 12.152C11.4891 12.3301 11.4637 12.5111 11.3927 12.676C11.3216 12.8409 11.2075 12.9837 11.0622 13.0892C10.9169 13.1948 10.7459 13.2593 10.5671 13.276C10.3883 13.2927 10.2083 13.2609 10.046 13.184L7.42901 11.942C7.29496 11.8783 7.14842 11.8453 7.00001 11.8453C6.85161 11.8453 6.70507 11.8783 6.57101 11.942V11.943ZM26.571 11.943L23.955 13.185C23.7927 13.2619 23.6127 13.2937 23.4339 13.277C23.2551 13.2603 23.0841 13.1958 22.9388 13.0902C22.7936 12.9847 22.6794 12.8419 22.6084 12.677C22.5373 12.5121 22.512 12.3311 22.535 12.153L22.907 9.28096C22.9262 9.13381 22.9123 8.98424 22.8665 8.8431C22.8206 8.70196 22.744 8.57279 22.642 8.46496L20.652 6.36096C20.5286 6.23038 20.4426 6.06895 20.4031 5.89365C20.3636 5.71834 20.3721 5.53563 20.4277 5.36474C20.4832 5.19385 20.5838 5.04109 20.7189 4.92252C20.8539 4.80395 21.0184 4.72396 21.195 4.69096L24.042 4.15796C24.1878 4.13069 24.3258 4.07132 24.4458 3.98415C24.5658 3.89697 24.665 3.78419 24.736 3.65396L26.122 1.10996C26.208 0.952197 26.335 0.820521 26.4895 0.72878C26.644 0.637039 26.8203 0.588623 27 0.588623C27.1797 0.588623 27.3561 0.637039 27.5106 0.72878C27.6651 0.820521 27.792 0.952197 27.878 1.10996L29.264 3.65296C29.3351 3.78319 29.4342 3.89597 29.5542 3.98315C29.6743 4.07032 29.8122 4.12969 29.958 4.15696L32.805 4.68996C32.9817 4.72296 33.1461 4.80295 33.2812 4.92152C33.4162 5.04009 33.5168 5.19285 33.5724 5.36374C33.6279 5.53463 33.6364 5.71734 33.5969 5.89265C33.5575 6.06795 33.4715 6.22938 33.348 6.35996L31.358 8.46396C31.2561 8.57179 31.1794 8.70096 31.1336 8.8421C31.0877 8.98324 31.0739 9.13281 31.093 9.27996L31.466 12.152C31.4891 12.3301 31.4637 12.5111 31.3927 12.676C31.3216 12.8409 31.2075 12.9837 31.0622 13.0892C30.9169 13.1948 30.7459 13.2593 30.5671 13.276C30.3883 13.2927 30.2083 13.2609 30.046 13.184L27.429 11.942C27.295 11.8783 27.1484 11.8453 27 11.8453C26.8516 11.8453 26.7051 11.8783 26.571 11.942V11.943ZM46.571 11.943L43.955 13.185C43.7927 13.2619 43.6127 13.2937 43.4339 13.277C43.2551 13.2603 43.0841 13.1958 42.9388 13.0902C42.7936 12.9847 42.6794 12.8419 42.6084 12.677C42.5373 12.5121 42.512 12.3311 42.535 12.153L42.907 9.28096C42.9262 9.13381 42.9123 8.98424 42.8665 8.8431C42.8206 8.70196 42.744 8.57279 42.642 8.46496L40.652 6.36096C40.5286 6.23038 40.4426 6.06895 40.4031 5.89365C40.3636 5.71834 40.3721 5.53563 40.4277 5.36474C40.4832 5.19385 40.5838 5.04109 40.7189 4.92252C40.8539 4.80395 41.0184 4.72396 41.195 4.69096L44.042 4.15796C44.1878 4.13069 44.3258 4.07132 44.4458 3.98415C44.5658 3.89697 44.665 3.78419 44.736 3.65396L46.122 1.10996C46.208 0.952197 46.3349 0.820521 46.4895 0.72878C46.644 0.637039 46.8203 0.588623 47 0.588623C47.1797 0.588623 47.3561 0.637039 47.5106 0.72878C47.6651 0.820521 47.792 0.952197 47.878 1.10996L49.264 3.65296C49.3351 3.78319 49.4342 3.89597 49.5542 3.98315C49.6743 4.07032 49.8122 4.12969 49.958 4.15696L52.805 4.68996C52.9817 4.72296 53.1461 4.80295 53.2812 4.92152C53.4162 5.04009 53.5168 5.19285 53.5724 5.36374C53.6279 5.53463 53.6364 5.71734 53.5969 5.89265C53.5575 6.06795 53.4715 6.22938 53.348 6.35996L51.358 8.46396C51.2561 8.57179 51.1794 8.70096 51.1336 8.8421C51.0877 8.98324 51.0739 9.13281 51.093 9.27996L51.466 12.152C51.4891 12.3301 51.4637 12.5111 51.3927 12.676C51.3216 12.8409 51.2075 12.9837 51.0622 13.0892C50.9169 13.1948 50.7459 13.2593 50.5671 13.276C50.3883 13.2927 50.2083 13.2609 50.046 13.184L47.429 11.942C47.295 11.8783 47.1484 11.8453 47 11.8453C46.8516 11.8453 46.7051 11.8783 46.571 11.942V11.943ZM66.571 11.943L63.955 13.185C63.7927 13.2619 63.6127 13.2937 63.4339 13.277C63.2551 13.2603 63.0841 13.1958 62.9388 13.0902C62.7936 12.9847 62.6794 12.8419 62.6084 12.677C62.5373 12.5121 62.512 12.3311 62.535 12.153L62.907 9.28096C62.9262 9.13381 62.9123 8.98424 62.8665 8.8431C62.8206 8.70196 62.744 8.57279 62.642 8.46496L60.652 6.36096C60.5286 6.23038 60.4426 6.06895 60.4031 5.89365C60.3636 5.71834 60.3721 5.53563 60.4277 5.36474C60.4832 5.19385 60.5838 5.04109 60.7189 4.92252C60.8539 4.80395 61.0184 4.72396 61.195 4.69096L64.042 4.15796C64.1878 4.13069 64.3258 4.07132 64.4458 3.98415C64.5658 3.89697 64.665 3.78419 64.736 3.65396L66.122 1.10996C66.208 0.952197 66.335 0.820521 66.4895 0.72878C66.644 0.637039 66.8203 0.588623 67 0.588623C67.1797 0.588623 67.3561 0.637039 67.5106 0.72878C67.6651 0.820521 67.792 0.952197 67.878 1.10996L69.264 3.65296C69.3351 3.78319 69.4342 3.89597 69.5542 3.98315C69.6743 4.07032 69.8122 4.12969 69.958 4.15696L72.805 4.68996C72.9817 4.72296 73.1461 4.80295 73.2812 4.92152C73.4162 5.04009 73.5168 5.19285 73.5724 5.36374C73.6279 5.53463 73.6364 5.71734 73.5969 5.89265C73.5575 6.06795 73.4715 6.22938 73.348 6.35996L71.358 8.46396C71.2561 8.57179 71.1794 8.70096 71.1336 8.8421C71.0877 8.98324 71.0739 9.13281 71.093 9.27996L71.466 12.152C71.4891 12.3301 71.4637 12.5111 71.3927 12.676C71.3216 12.8409 71.2075 12.9837 71.0622 13.0892C70.9169 13.1948 70.7459 13.2593 70.5671 13.276C70.3883 13.2927 70.2083 13.2609 70.046 13.184L67.429 11.942C67.295 11.8783 67.1484 11.8453 67 11.8453C66.8516 11.8453 66.7051 11.8783 66.571 11.942V11.943Z" fill="#F7B500"/>
<path fill-rule="evenodd" clip-rule="evenodd" d="M86.571 11.943L83.955 13.185C83.7927 13.2619 83.6127 13.2937 83.4339 13.277C83.2551 13.2603 83.0841 13.1958 82.9388 13.0902C82.7936 12.9847 82.6794 12.8419 82.6084 12.677C82.5373 12.5121 82.512 12.3311 82.535 12.153L82.907 9.28096C82.9261 9.13381 82.9123 8.98424 82.8665 8.8431C82.8206 8.70196 82.744 8.57279 82.642 8.46496L80.652 6.36096C80.5286 6.23038 80.4426 6.06895 80.4031 5.89365C80.3636 5.71834 80.3721 5.53563 80.4277 5.36474C80.4832 5.19385 80.5838 5.04109 80.7189 4.92252C80.8539 4.80395 81.0184 4.72396 81.195 4.69096L84.042 4.15796C84.1878 4.13069 84.3258 4.07132 84.4458 3.98415C84.5658 3.89697 84.665 3.78419 84.736 3.65396L86.122 1.10996C86.208 0.952197 86.3349 0.820521 86.4895 0.72878C86.644 0.637039 86.8203 0.588623 87 0.588623C87.1797 0.588623 87.3561 0.637039 87.5106 0.72878C87.6651 0.820521 87.792 0.952197 87.878 1.10996L89.264 3.65296C89.3351 3.78319 89.4342 3.89597 89.5542 3.98315C89.6743 4.07032 89.8122 4.12969 89.958 4.15696L92.805 4.68996C92.9817 4.72296 93.1461 4.80295 93.2812 4.92152C93.4162 5.04009 93.5168 5.19285 93.5724 5.36374C93.6279 5.53463 93.6364 5.71734 93.5969 5.89265C93.5574 6.06795 93.4715 6.22938 93.348 6.35996L91.358 8.46396C91.2561 8.57179 91.1794 8.70096 91.1336 8.8421C91.0877 8.98324 91.0739 9.13281 91.093 9.27996L91.466 12.152C91.4891 12.3301 91.4637 12.5111 91.3927 12.676C91.3216 12.8409 91.2075 12.9837 91.0622 13.0892C90.9169 13.1948 90.7459 13.2593 90.5671 13.276C90.3883 13.2927 90.2083 13.2609 90.046 13.184L87.429 11.942C87.295 11.8783 87.1484 11.8453 87 11.8453C86.8516 11.8453 86.7051 11.8783 86.571 11.942V11.943Z" fill="#F7B500"/>
</g>
<defs>
<clipPath id="clip0_13_131">
<rect width="94" height="13" fill="white" transform="translate(0 0.5)"/>
</clipPath>
</defs>
</svg>
