<svg width="94.000000" height="13.000000" viewBox="0 0 94 13" fill="none" xmlns="http://www.w3.org/2000/svg" xmlns:xlink="http://www.w3.org/1999/xlink">
	<desc>
			Created with Pixso.
	</desc>
	<defs>
		<clipPath id="clip13_209">
			<rect id="rate 1" rx="0.000000" width="93.000000" height="12.000000" transform="translate(0.500000 0.500000)" fill="white" fill-opacity="0"/>
		</clipPath>
	</defs>
	<rect id="rate 1" rx="0.000000" width="93.000000" height="12.000000" transform="translate(0.500000 0.500000)" fill="#FFFFFF" fill-opacity="0"/>
	<g clip-path="url(#clip13_209)">
		<path id="Vector" d="M6.57 11.44L3.95 12.68C3.79 12.76 3.61 12.79 3.43 12.77C3.25 12.76 3.08 12.69 2.93 12.59C2.79 12.48 2.67 12.34 2.6 12.17C2.53 12.01 2.51 11.83 2.53 11.65L2.9 8.78C2.92 8.63 2.91 8.48 2.86 8.34C2.82 8.2 2.74 8.07 2.64 7.96L0.65 5.85C0.52 5.72 0.44 5.56 0.4 5.39C0.36 5.21 0.37 5.03 0.42 4.86C0.48 4.69 0.58 4.54 0.71 4.42C0.85 4.3 1.01 4.22 1.19 4.18L4.04 3.65C4.18 3.62 4.32 3.57 4.44 3.48C4.56 3.39 4.66 3.28 4.73 3.15L6.12 0.6C6.2 0.45 6.33 0.32 6.48 0.22C6.64 0.13 6.82 0.08 7 0.08C7.17 0.08 7.35 0.13 7.51 0.22C7.66 0.32 7.79 0.45 7.87 0.6L9.26 3.15C9.33 3.28 9.43 3.39 9.55 3.48C9.67 3.57 9.81 3.62 9.95 3.65L12.8 4.18C12.98 4.22 13.14 4.3 13.28 4.42C13.41 4.54 13.51 4.69 13.57 4.86C13.62 5.03 13.63 5.21 13.59 5.39C13.55 5.56 13.47 5.72 13.34 5.85L11.35 7.96C11.25 8.07 11.17 8.2 11.13 8.34C11.08 8.48 11.07 8.63 11.09 8.78L11.46 11.65C11.48 11.83 11.46 12.01 11.39 12.17C11.32 12.34 11.2 12.48 11.06 12.58C10.91 12.69 10.74 12.75 10.56 12.77C10.38 12.79 10.2 12.76 10.04 12.68L7.42 11.44C7.29 11.37 7.14 11.34 7 11.34C6.85 11.34 6.7 11.37 6.57 11.44L6.57 11.44ZM26.57 11.44L23.95 12.68C23.79 12.76 23.61 12.79 23.43 12.77C23.25 12.76 23.08 12.69 22.93 12.59C22.79 12.48 22.67 12.34 22.6 12.17C22.53 12.01 22.51 11.83 22.53 11.65L22.9 8.78C22.92 8.63 22.91 8.48 22.86 8.34C22.82 8.2 22.74 8.07 22.64 7.96L20.65 5.86C20.52 5.73 20.44 5.56 20.4 5.39C20.36 5.21 20.37 5.03 20.42 4.86C20.48 4.69 20.58 4.54 20.71 4.42C20.85 4.3 21.01 4.22 21.19 4.19L24.04 3.65C24.18 3.63 24.32 3.57 24.44 3.48C24.56 3.39 24.66 3.28 24.73 3.15L26.12 0.6C26.2 0.45 26.33 0.32 26.48 0.22C26.64 0.13 26.82 0.08 27 0.08C27.17 0.08 27.35 0.13 27.51 0.22C27.66 0.32 27.79 0.45 27.87 0.6L29.26 3.15C29.33 3.28 29.43 3.39 29.55 3.48C29.67 3.57 29.81 3.62 29.95 3.65L32.8 4.18C32.98 4.22 33.14 4.3 33.28 4.42C33.41 4.54 33.51 4.69 33.57 4.86C33.62 5.03 33.63 5.21 33.59 5.39C33.55 5.56 33.47 5.72 33.34 5.85L31.35 7.96C31.25 8.07 31.17 8.2 31.13 8.34C31.08 8.48 31.07 8.63 31.09 8.78L31.46 11.65C31.48 11.83 31.46 12.01 31.39 12.17C31.32 12.34 31.2 12.48 31.06 12.58C30.91 12.69 30.74 12.75 30.56 12.77C30.38 12.79 30.2 12.76 30.04 12.68L27.42 11.44C27.29 11.37 27.14 11.34 27 11.34C26.85 11.34 26.7 11.37 26.57 11.44L26.57 11.44ZM46.57 11.44L43.95 12.68C43.79 12.76 43.61 12.79 43.43 12.77C43.25 12.76 43.08 12.69 42.93 12.59C42.79 12.48 42.67 12.34 42.6 12.17C42.53 12.01 42.51 11.83 42.53 11.65L42.9 8.78C42.92 8.63 42.91 8.48 42.86 8.34C42.82 8.2 42.74 8.07 42.64 7.96L40.65 5.86C40.52 5.73 40.44 5.56 40.4 5.39C40.36 5.21 40.37 5.03 40.42 4.86C40.48 4.69 40.58 4.54 40.71 4.42C40.85 4.3 41.01 4.22 41.19 4.19L44.04 3.65C44.18 3.63 44.32 3.57 44.44 3.48C44.56 3.39 44.66 3.28 44.73 3.15L46.12 0.6C46.2 0.45 46.33 0.32 46.48 0.22C46.64 0.13 46.82 0.08 47 0.08C47.17 0.08 47.35 0.13 47.51 0.22C47.66 0.32 47.79 0.45 47.87 0.6L49.26 3.15C49.33 3.28 49.43 3.39 49.55 3.48C49.67 3.57 49.81 3.62 49.95 3.65L52.8 4.18C52.98 4.22 53.14 4.3 53.28 4.42C53.41 4.54 53.51 4.69 53.57 4.86C53.62 5.03 53.63 5.21 53.59 5.39C53.55 5.56 53.47 5.72 53.34 5.85L51.35 7.96C51.25 8.07 51.17 8.2 51.13 8.34C51.08 8.48 51.07 8.63 51.09 8.78L51.46 11.65C51.48 11.83 51.46 12.01 51.39 12.17C51.32 12.34 51.2 12.48 51.06 12.58C50.91 12.69 50.74 12.75 50.56 12.77C50.38 12.79 50.2 12.76 50.04 12.68L47.42 11.44C47.29 11.37 47.14 11.34 47 11.34C46.85 11.34 46.7 11.37 46.57 11.44L46.57 11.44ZM66.57 11.44L63.95 12.68C63.79 12.76 63.61 12.79 63.43 12.77C63.25 12.76 63.08 12.69 62.93 12.59C62.79 12.48 62.67 12.34 62.6 12.17C62.53 12.01 62.51 11.83 62.53 11.65L62.9 8.78C62.92 8.63 62.91 8.48 62.86 8.34C62.82 8.2 62.74 8.07 62.64 7.96L60.65 5.86C60.52 5.73 60.44 5.56 60.4 5.39C60.36 5.21 60.37 5.03 60.42 4.86C60.48 4.69 60.58 4.54 60.71 4.42C60.85 4.3 61.01 4.22 61.19 4.19L64.04 3.65C64.18 3.63 64.32 3.57 64.44 3.48C64.56 3.39 64.66 3.28 64.73 3.15L66.12 0.6C66.2 0.45 66.33 0.32 66.48 0.22C66.64 0.13 66.82 0.08 67 0.08C67.17 0.08 67.35 0.13 67.51 0.22C67.66 0.32 67.79 0.45 67.87 0.6L69.26 3.15C69.33 3.28 69.43 3.39 69.55 3.48C69.67 3.57 69.81 3.62 69.95 3.65L72.8 4.18C72.98 4.22 73.14 4.3 73.28 4.42C73.41 4.54 73.51 4.69 73.57 4.86C73.62 5.03 73.63 5.21 73.59 5.39C73.55 5.56 73.47 5.72 73.34 5.85L71.35 7.96C71.25 8.07 71.17 8.2 71.13 8.34C71.08 8.48 71.07 8.63 71.09 8.78L71.46 11.65C71.48 11.83 71.46 12.01 71.39 12.17C71.32 12.34 71.2 12.48 71.06 12.58C70.91 12.69 70.74 12.75 70.56 12.77C70.38 12.79 70.2 12.76 70.04 12.68L67.42 11.44C67.29 11.37 67.14 11.34 67 11.34C66.85 11.34 66.7 11.37 66.57 11.44L66.57 11.44Z" fill="#F7B500" fill-opacity="1.000000" fill-rule="evenodd"/>
		<path id="Vector" d="M86.57 11.44L83.95 12.68C83.79 12.76 83.61 12.79 83.43 12.77C83.25 12.76 83.08 12.69 82.93 12.59C82.79 12.48 82.67 12.34 82.6 12.17C82.53 12.01 82.51 11.83 82.53 11.65L82.9 8.78C82.92 8.63 82.91 8.48 82.86 8.34C82.82 8.2 82.74 8.07 82.64 7.96L80.65 5.86C80.52 5.73 80.44 5.56 80.4 5.39C80.36 5.21 80.37 5.03 80.42 4.86C80.48 4.69 80.58 4.54 80.71 4.42C80.85 4.3 81.01 4.22 81.19 4.19L84.04 3.65C84.18 3.63 84.32 3.57 84.44 3.48C84.56 3.39 84.66 3.28 84.73 3.15L86.12 0.6C86.2 0.45 86.33 0.32 86.48 0.22C86.64 0.13 86.82 0.08 87 0.08C87.17 0.08 87.35 0.13 87.51 0.22C87.66 0.32 87.79 0.45 87.87 0.6L89.26 3.15C89.33 3.28 89.43 3.39 89.55 3.48C89.67 3.57 89.81 3.62 89.95 3.65L92.8 4.18C92.98 4.22 93.14 4.3 93.28 4.42C93.41 4.54 93.51 4.69 93.57 4.86C93.62 5.03 93.63 5.21 93.59 5.39C93.55 5.56 93.47 5.72 93.34 5.85L91.35 7.96C91.25 8.07 91.17 8.2 91.13 8.34C91.08 8.48 91.07 8.63 91.09 8.78L91.46 11.65C91.48 11.83 91.46 12.01 91.39 12.17C91.32 12.34 91.2 12.48 91.06 12.58C90.91 12.69 90.74 12.75 90.56 12.77C90.38 12.79 90.2 12.76 90.04 12.68L87.42 11.44C87.29 11.37 87.14 11.34 87 11.34C86.85 11.34 86.7 11.37 86.57 11.44L86.57 11.44Z" fill="#D7D7D7" fill-opacity="1.000000" fill-rule="evenodd"/>
	</g>
</svg>
