<svg width="20.000000" height="16.000000" viewBox="0 0 20 16" fill="none" xmlns="http://www.w3.org/2000/svg" xmlns:xlink="http://www.w3.org/1999/xlink">
	<desc>
			Created with Pixso.
	</desc>
	<defs/>
	<path id="Vector" d="M20 4.25L20 13.2C20 14.74 18.76 16 17.23 16L2.76 16C2.03 16 1.32 15.7 0.8 15.17C0.29 14.65 0 13.94 0 13.2L0 4.25L9.68 9.65C9.88 9.76 10.12 9.76 10.31 9.65L20 4.25ZM17.23 0C17.95 0 18.65 0.28 19.16 0.79C19.68 1.3 19.98 2 19.99 2.73L10 8.3L0 2.73L0 2.68C0.03 1.96 0.33 1.27 0.84 0.77C1.36 0.27 2.05 0 2.76 0L17.23 0Z" fill="#2D2D2C" fill-opacity="1.000000" fill-rule="nonzero"/>
</svg>
