<svg width="20.000000" height="16.250000" viewBox="0 0 20 16.25" fill="none" xmlns="http://www.w3.org/2000/svg" xmlns:xlink="http://www.w3.org/1999/xlink">
	<desc>
			Created with Pixso.
	</desc>
	<defs/>
	<path id="Vector" d="M6.29 16.25C13.83 16.25 17.96 9.99 17.96 4.57C17.96 4.4 17.96 4.22 17.95 4.04C18.75 3.46 19.44 2.74 20 1.92C19.25 2.25 18.45 2.47 17.64 2.56C18.5 2.05 19.14 1.24 19.44 0.29C18.64 0.77 17.76 1.11 16.84 1.29C16.22 0.63 15.4 0.2 14.51 0.05C13.62 -0.1 12.71 0.05 11.91 0.48C11.11 0.91 10.48 1.58 10.11 2.41C9.73 3.23 9.64 4.15 9.84 5.03C8.21 4.95 6.62 4.52 5.16 3.79C3.71 3.05 2.42 2.01 1.39 0.75C0.87 1.65 0.71 2.72 0.94 3.73C1.18 4.75 1.79 5.64 2.66 6.22C2.01 6.2 1.37 6.02 0.8 5.71L0.8 5.76C0.8 6.71 1.13 7.63 1.73 8.36C2.33 9.09 3.16 9.6 4.09 9.78C3.49 9.95 2.85 9.97 2.24 9.85C2.5 10.67 3.01 11.38 3.7 11.89C4.39 12.4 5.22 12.69 6.07 12.71C4.62 13.85 2.82 14.46 0.98 14.46C0.65 14.46 0.32 14.44 0 14.4C1.87 15.61 4.06 16.25 6.29 16.25Z" fill="#333333" fill-opacity="1.000000" fill-rule="nonzero"/>
</svg>
